<mxfile host="app.diagrams.net" modified="2023-11-14T01:57:06.137Z" agent="Mozilla/5.0 (Windows NT 10.0; Win64; x64) AppleWebKit/537.36 (KHTML, like Gecko) Chrome/119.0.0.0 Safari/537.36" etag="j8oaQsHJIWLtT2ee19rW" version="22.1.0" type="github">
  <diagram name="第 1 页" id="bE0YgNWVejIBop6zJ2af">
    <mxGraphModel dx="1434" dy="1941" grid="1" gridSize="10" guides="1" tooltips="1" connect="1" arrows="1" fold="1" page="1" pageScale="1" pageWidth="827" pageHeight="1169" math="0" shadow="0">
      <root>
        <mxCell id="0" />
        <mxCell id="1" parent="0" />
        <mxCell id="Lj6HUYgbdcglg7Dd-NL7-29" style="rounded=0;orthogonalLoop=1;jettySize=auto;html=1;exitX=1;exitY=0.5;exitDx=0;exitDy=0;entryX=0;entryY=0.5;entryDx=0;entryDy=0;endArrow=none;endFill=0;" edge="1" parent="1" source="Lj6HUYgbdcglg7Dd-NL7-1" target="Lj6HUYgbdcglg7Dd-NL7-11">
          <mxGeometry relative="1" as="geometry" />
        </mxCell>
        <mxCell id="Lj6HUYgbdcglg7Dd-NL7-39" value="1" style="edgeLabel;html=1;align=center;verticalAlign=middle;resizable=0;points=[];" vertex="1" connectable="0" parent="Lj6HUYgbdcglg7Dd-NL7-29">
          <mxGeometry x="0.1933" y="-2" relative="1" as="geometry">
            <mxPoint as="offset" />
          </mxGeometry>
        </mxCell>
        <mxCell id="Lj6HUYgbdcglg7Dd-NL7-89" style="rounded=0;orthogonalLoop=1;jettySize=auto;html=1;exitX=0.5;exitY=1;exitDx=0;exitDy=0;entryX=0.5;entryY=0;entryDx=0;entryDy=0;endArrow=none;endFill=0;" edge="1" parent="1" source="Lj6HUYgbdcglg7Dd-NL7-1" target="Lj6HUYgbdcglg7Dd-NL7-87">
          <mxGeometry relative="1" as="geometry" />
        </mxCell>
        <mxCell id="Lj6HUYgbdcglg7Dd-NL7-96" value="1" style="edgeLabel;html=1;align=center;verticalAlign=middle;resizable=0;points=[];" vertex="1" connectable="0" parent="Lj6HUYgbdcglg7Dd-NL7-89">
          <mxGeometry x="0.4481" relative="1" as="geometry">
            <mxPoint as="offset" />
          </mxGeometry>
        </mxCell>
        <mxCell id="Lj6HUYgbdcglg7Dd-NL7-1" value="用户" style="rounded=0;whiteSpace=wrap;html=1;" vertex="1" parent="1">
          <mxGeometry x="330" y="260" width="60" height="30" as="geometry" />
        </mxCell>
        <mxCell id="Lj6HUYgbdcglg7Dd-NL7-35" style="rounded=0;orthogonalLoop=1;jettySize=auto;html=1;exitX=0.5;exitY=0;exitDx=0;exitDy=0;entryX=0.5;entryY=1;entryDx=0;entryDy=0;endArrow=none;endFill=0;" edge="1" parent="1" source="Lj6HUYgbdcglg7Dd-NL7-6" target="Lj6HUYgbdcglg7Dd-NL7-1">
          <mxGeometry relative="1" as="geometry" />
        </mxCell>
        <mxCell id="Lj6HUYgbdcglg7Dd-NL7-6" value="注册时间" style="ellipse;whiteSpace=wrap;html=1;" vertex="1" parent="1">
          <mxGeometry x="290" y="330" width="60" height="50" as="geometry" />
        </mxCell>
        <mxCell id="Lj6HUYgbdcglg7Dd-NL7-34" style="rounded=0;orthogonalLoop=1;jettySize=auto;html=1;exitX=1;exitY=0.5;exitDx=0;exitDy=0;endArrow=none;endFill=0;" edge="1" parent="1" source="Lj6HUYgbdcglg7Dd-NL7-7" target="Lj6HUYgbdcglg7Dd-NL7-1">
          <mxGeometry relative="1" as="geometry" />
        </mxCell>
        <mxCell id="Lj6HUYgbdcglg7Dd-NL7-7" value="用户ID" style="ellipse;whiteSpace=wrap;html=1;" vertex="1" parent="1">
          <mxGeometry x="234" y="270" width="60" height="50" as="geometry" />
        </mxCell>
        <mxCell id="Lj6HUYgbdcglg7Dd-NL7-8" value="用户名" style="ellipse;whiteSpace=wrap;html=1;" vertex="1" parent="1">
          <mxGeometry x="270" y="190" width="60" height="50" as="geometry" />
        </mxCell>
        <mxCell id="Lj6HUYgbdcglg7Dd-NL7-9" value="电话" style="ellipse;whiteSpace=wrap;html=1;" vertex="1" parent="1">
          <mxGeometry x="414" y="190" width="60" height="50" as="geometry" />
        </mxCell>
        <mxCell id="Lj6HUYgbdcglg7Dd-NL7-32" style="rounded=0;orthogonalLoop=1;jettySize=auto;html=1;exitX=0;exitY=0.5;exitDx=0;exitDy=0;entryX=1;entryY=0.75;entryDx=0;entryDy=0;endArrow=none;endFill=0;" edge="1" parent="1" source="Lj6HUYgbdcglg7Dd-NL7-10" target="Lj6HUYgbdcglg7Dd-NL7-1">
          <mxGeometry relative="1" as="geometry" />
        </mxCell>
        <mxCell id="Lj6HUYgbdcglg7Dd-NL7-10" value="邮箱" style="ellipse;whiteSpace=wrap;html=1;" vertex="1" parent="1">
          <mxGeometry x="420" y="270" width="60" height="50" as="geometry" />
        </mxCell>
        <mxCell id="Lj6HUYgbdcglg7Dd-NL7-30" style="rounded=0;orthogonalLoop=1;jettySize=auto;html=1;exitX=1;exitY=0.5;exitDx=0;exitDy=0;entryX=0;entryY=0.5;entryDx=0;entryDy=0;endArrow=none;endFill=0;" edge="1" parent="1" source="Lj6HUYgbdcglg7Dd-NL7-11" target="Lj6HUYgbdcglg7Dd-NL7-13">
          <mxGeometry relative="1" as="geometry" />
        </mxCell>
        <mxCell id="Lj6HUYgbdcglg7Dd-NL7-40" value="1" style="edgeLabel;html=1;align=center;verticalAlign=middle;resizable=0;points=[];" vertex="1" connectable="0" parent="Lj6HUYgbdcglg7Dd-NL7-30">
          <mxGeometry x="-0.2345" y="-3" relative="1" as="geometry">
            <mxPoint as="offset" />
          </mxGeometry>
        </mxCell>
        <mxCell id="Lj6HUYgbdcglg7Dd-NL7-11" value="关联" style="rhombus;whiteSpace=wrap;html=1;" vertex="1" parent="1">
          <mxGeometry x="510" y="230" width="80" height="40" as="geometry" />
        </mxCell>
        <mxCell id="Lj6HUYgbdcglg7Dd-NL7-43" style="rounded=0;orthogonalLoop=1;jettySize=auto;html=1;exitX=0.5;exitY=1;exitDx=0;exitDy=0;entryX=0;entryY=0.5;entryDx=0;entryDy=0;endArrow=none;endFill=0;" edge="1" parent="1" source="Lj6HUYgbdcglg7Dd-NL7-13" target="Lj6HUYgbdcglg7Dd-NL7-42">
          <mxGeometry relative="1" as="geometry" />
        </mxCell>
        <mxCell id="Lj6HUYgbdcglg7Dd-NL7-45" value="1" style="edgeLabel;html=1;align=center;verticalAlign=middle;resizable=0;points=[];" vertex="1" connectable="0" parent="Lj6HUYgbdcglg7Dd-NL7-43">
          <mxGeometry x="-0.1683" y="2" relative="1" as="geometry">
            <mxPoint as="offset" />
          </mxGeometry>
        </mxCell>
        <mxCell id="Lj6HUYgbdcglg7Dd-NL7-13" value="角色" style="rounded=0;whiteSpace=wrap;html=1;" vertex="1" parent="1">
          <mxGeometry x="640" y="235" width="60" height="30" as="geometry" />
        </mxCell>
        <mxCell id="Lj6HUYgbdcglg7Dd-NL7-21" style="rounded=0;orthogonalLoop=1;jettySize=auto;html=1;exitX=0.5;exitY=1;exitDx=0;exitDy=0;entryX=0.5;entryY=0;entryDx=0;entryDy=0;endArrow=none;endFill=0;" edge="1" parent="1" source="Lj6HUYgbdcglg7Dd-NL7-14" target="Lj6HUYgbdcglg7Dd-NL7-13">
          <mxGeometry relative="1" as="geometry" />
        </mxCell>
        <mxCell id="Lj6HUYgbdcglg7Dd-NL7-14" value="角色ID" style="ellipse;whiteSpace=wrap;html=1;" vertex="1" parent="1">
          <mxGeometry x="610" y="150" width="60" height="50" as="geometry" />
        </mxCell>
        <mxCell id="Lj6HUYgbdcglg7Dd-NL7-25" style="rounded=0;orthogonalLoop=1;jettySize=auto;html=1;exitX=0.5;exitY=1;exitDx=0;exitDy=0;endArrow=none;endFill=0;" edge="1" parent="1" source="Lj6HUYgbdcglg7Dd-NL7-15">
          <mxGeometry relative="1" as="geometry">
            <mxPoint x="690" y="230" as="targetPoint" />
          </mxGeometry>
        </mxCell>
        <mxCell id="Lj6HUYgbdcglg7Dd-NL7-15" value="角色名" style="ellipse;whiteSpace=wrap;html=1;" vertex="1" parent="1">
          <mxGeometry x="700" y="150" width="60" height="50" as="geometry" />
        </mxCell>
        <mxCell id="Lj6HUYgbdcglg7Dd-NL7-23" style="rounded=0;orthogonalLoop=1;jettySize=auto;html=1;exitX=0;exitY=0.5;exitDx=0;exitDy=0;entryX=1;entryY=0.5;entryDx=0;entryDy=0;endArrow=none;endFill=0;" edge="1" parent="1" source="Lj6HUYgbdcglg7Dd-NL7-16" target="Lj6HUYgbdcglg7Dd-NL7-13">
          <mxGeometry relative="1" as="geometry" />
        </mxCell>
        <mxCell id="Lj6HUYgbdcglg7Dd-NL7-16" value="角色描述" style="ellipse;whiteSpace=wrap;html=1;" vertex="1" parent="1">
          <mxGeometry x="720" y="240" width="60" height="50" as="geometry" />
        </mxCell>
        <mxCell id="Lj6HUYgbdcglg7Dd-NL7-44" style="rounded=0;orthogonalLoop=1;jettySize=auto;html=1;exitX=0.5;exitY=0;exitDx=0;exitDy=0;entryX=1;entryY=0.5;entryDx=0;entryDy=0;endArrow=none;endFill=0;" edge="1" parent="1" source="Lj6HUYgbdcglg7Dd-NL7-17" target="Lj6HUYgbdcglg7Dd-NL7-42">
          <mxGeometry relative="1" as="geometry" />
        </mxCell>
        <mxCell id="Lj6HUYgbdcglg7Dd-NL7-46" value="N" style="edgeLabel;html=1;align=center;verticalAlign=middle;resizable=0;points=[];" vertex="1" connectable="0" parent="Lj6HUYgbdcglg7Dd-NL7-44">
          <mxGeometry x="-0.0883" y="-1" relative="1" as="geometry">
            <mxPoint as="offset" />
          </mxGeometry>
        </mxCell>
        <mxCell id="Lj6HUYgbdcglg7Dd-NL7-17" value="权限" style="rounded=0;whiteSpace=wrap;html=1;" vertex="1" parent="1">
          <mxGeometry x="660" y="450" width="60" height="30" as="geometry" />
        </mxCell>
        <mxCell id="Lj6HUYgbdcglg7Dd-NL7-26" style="rounded=0;orthogonalLoop=1;jettySize=auto;html=1;exitX=0.5;exitY=1;exitDx=0;exitDy=0;entryX=0.25;entryY=0;entryDx=0;entryDy=0;endArrow=none;endFill=0;" edge="1" parent="1" source="Lj6HUYgbdcglg7Dd-NL7-18" target="Lj6HUYgbdcglg7Dd-NL7-17">
          <mxGeometry relative="1" as="geometry" />
        </mxCell>
        <mxCell id="Lj6HUYgbdcglg7Dd-NL7-18" value="权限ID" style="ellipse;whiteSpace=wrap;html=1;" vertex="1" parent="1">
          <mxGeometry x="600" y="370" width="60" height="50" as="geometry" />
        </mxCell>
        <mxCell id="Lj6HUYgbdcglg7Dd-NL7-27" style="rounded=0;orthogonalLoop=1;jettySize=auto;html=1;exitX=0.5;exitY=1;exitDx=0;exitDy=0;entryX=0.75;entryY=0;entryDx=0;entryDy=0;endArrow=none;endFill=0;" edge="1" parent="1" source="Lj6HUYgbdcglg7Dd-NL7-19" target="Lj6HUYgbdcglg7Dd-NL7-17">
          <mxGeometry relative="1" as="geometry" />
        </mxCell>
        <mxCell id="Lj6HUYgbdcglg7Dd-NL7-19" value="权限名称" style="ellipse;whiteSpace=wrap;html=1;" vertex="1" parent="1">
          <mxGeometry x="710" y="380" width="60" height="50" as="geometry" />
        </mxCell>
        <mxCell id="Lj6HUYgbdcglg7Dd-NL7-28" style="rounded=0;orthogonalLoop=1;jettySize=auto;html=1;exitX=0;exitY=0.5;exitDx=0;exitDy=0;entryX=1;entryY=0.75;entryDx=0;entryDy=0;endArrow=none;endFill=0;" edge="1" parent="1" source="Lj6HUYgbdcglg7Dd-NL7-20" target="Lj6HUYgbdcglg7Dd-NL7-17">
          <mxGeometry relative="1" as="geometry" />
        </mxCell>
        <mxCell id="Lj6HUYgbdcglg7Dd-NL7-20" value="权限描述" style="ellipse;whiteSpace=wrap;html=1;" vertex="1" parent="1">
          <mxGeometry x="740" y="450" width="60" height="50" as="geometry" />
        </mxCell>
        <mxCell id="Lj6HUYgbdcglg7Dd-NL7-31" style="rounded=0;orthogonalLoop=1;jettySize=auto;html=1;exitX=0;exitY=0.5;exitDx=0;exitDy=0;entryX=0.617;entryY=-0.033;entryDx=0;entryDy=0;entryPerimeter=0;endArrow=none;endFill=0;" edge="1" parent="1" source="Lj6HUYgbdcglg7Dd-NL7-9" target="Lj6HUYgbdcglg7Dd-NL7-1">
          <mxGeometry relative="1" as="geometry" />
        </mxCell>
        <mxCell id="Lj6HUYgbdcglg7Dd-NL7-33" style="rounded=0;orthogonalLoop=1;jettySize=auto;html=1;exitX=0.5;exitY=1;exitDx=0;exitDy=0;endArrow=none;endFill=0;" edge="1" parent="1" source="Lj6HUYgbdcglg7Dd-NL7-8">
          <mxGeometry relative="1" as="geometry">
            <mxPoint x="340" y="260" as="targetPoint" />
          </mxGeometry>
        </mxCell>
        <mxCell id="Lj6HUYgbdcglg7Dd-NL7-42" value="关联" style="rhombus;whiteSpace=wrap;html=1;rotation=80;" vertex="1" parent="1">
          <mxGeometry x="640" y="340" width="80" height="40" as="geometry" />
        </mxCell>
        <mxCell id="Lj6HUYgbdcglg7Dd-NL7-48" value="权限升级" style="rounded=0;whiteSpace=wrap;html=1;" vertex="1" parent="1">
          <mxGeometry x="300" y="480" width="60" height="30" as="geometry" />
        </mxCell>
        <mxCell id="Lj6HUYgbdcglg7Dd-NL7-50" value="创建" style="rhombus;whiteSpace=wrap;html=1;rotation=105;" vertex="1" parent="1">
          <mxGeometry x="330" y="390" width="80" height="40" as="geometry" />
        </mxCell>
        <mxCell id="Lj6HUYgbdcglg7Dd-NL7-51" style="rounded=0;orthogonalLoop=1;jettySize=auto;html=1;exitX=0.5;exitY=1;exitDx=0;exitDy=0;entryX=0.085;entryY=0.49;entryDx=0;entryDy=0;entryPerimeter=0;endArrow=none;endFill=0;" edge="1" parent="1" source="Lj6HUYgbdcglg7Dd-NL7-1" target="Lj6HUYgbdcglg7Dd-NL7-50">
          <mxGeometry relative="1" as="geometry" />
        </mxCell>
        <mxCell id="Lj6HUYgbdcglg7Dd-NL7-53" value="1" style="edgeLabel;html=1;align=center;verticalAlign=middle;resizable=0;points=[];" vertex="1" connectable="0" parent="Lj6HUYgbdcglg7Dd-NL7-51">
          <mxGeometry x="0.2893" relative="1" as="geometry">
            <mxPoint as="offset" />
          </mxGeometry>
        </mxCell>
        <mxCell id="Lj6HUYgbdcglg7Dd-NL7-52" style="rounded=0;orthogonalLoop=1;jettySize=auto;html=1;exitX=0.5;exitY=0;exitDx=0;exitDy=0;entryX=0.969;entryY=0.327;entryDx=0;entryDy=0;entryPerimeter=0;endArrow=none;endFill=0;" edge="1" parent="1" source="Lj6HUYgbdcglg7Dd-NL7-48" target="Lj6HUYgbdcglg7Dd-NL7-50">
          <mxGeometry relative="1" as="geometry" />
        </mxCell>
        <mxCell id="Lj6HUYgbdcglg7Dd-NL7-54" value="1" style="edgeLabel;html=1;align=center;verticalAlign=middle;resizable=0;points=[];" vertex="1" connectable="0" parent="Lj6HUYgbdcglg7Dd-NL7-52">
          <mxGeometry x="0.073" y="-2" relative="1" as="geometry">
            <mxPoint as="offset" />
          </mxGeometry>
        </mxCell>
        <mxCell id="Lj6HUYgbdcglg7Dd-NL7-62" style="rounded=0;orthogonalLoop=1;jettySize=auto;html=1;exitX=1;exitY=0.5;exitDx=0;exitDy=0;entryX=0;entryY=0.5;entryDx=0;entryDy=0;endArrow=none;endFill=0;" edge="1" parent="1" source="Lj6HUYgbdcglg7Dd-NL7-55" target="Lj6HUYgbdcglg7Dd-NL7-48">
          <mxGeometry relative="1" as="geometry" />
        </mxCell>
        <mxCell id="Lj6HUYgbdcglg7Dd-NL7-55" value="用户ID" style="ellipse;whiteSpace=wrap;html=1;" vertex="1" parent="1">
          <mxGeometry x="200" y="450" width="60" height="50" as="geometry" />
        </mxCell>
        <mxCell id="Lj6HUYgbdcglg7Dd-NL7-65" style="rounded=0;orthogonalLoop=1;jettySize=auto;html=1;exitX=1;exitY=0;exitDx=0;exitDy=0;entryX=0.25;entryY=1;entryDx=0;entryDy=0;endArrow=none;endFill=0;" edge="1" parent="1" source="Lj6HUYgbdcglg7Dd-NL7-58" target="Lj6HUYgbdcglg7Dd-NL7-48">
          <mxGeometry relative="1" as="geometry" />
        </mxCell>
        <mxCell id="Lj6HUYgbdcglg7Dd-NL7-58" value="角色ID" style="ellipse;whiteSpace=wrap;html=1;" vertex="1" parent="1">
          <mxGeometry x="210" y="535" width="60" height="50" as="geometry" />
        </mxCell>
        <mxCell id="Lj6HUYgbdcglg7Dd-NL7-64" style="rounded=0;orthogonalLoop=1;jettySize=auto;html=1;exitX=0.5;exitY=0;exitDx=0;exitDy=0;endArrow=none;endFill=0;" edge="1" parent="1" source="Lj6HUYgbdcglg7Dd-NL7-59">
          <mxGeometry relative="1" as="geometry">
            <mxPoint x="330" y="510" as="targetPoint" />
          </mxGeometry>
        </mxCell>
        <mxCell id="Lj6HUYgbdcglg7Dd-NL7-59" value="邮箱" style="ellipse;whiteSpace=wrap;html=1;" vertex="1" parent="1">
          <mxGeometry x="300" y="535" width="60" height="50" as="geometry" />
        </mxCell>
        <mxCell id="Lj6HUYgbdcglg7Dd-NL7-66" style="rounded=0;orthogonalLoop=1;jettySize=auto;html=1;exitX=0;exitY=0;exitDx=0;exitDy=0;entryX=0.75;entryY=1;entryDx=0;entryDy=0;endArrow=none;endFill=0;" edge="1" parent="1" source="Lj6HUYgbdcglg7Dd-NL7-60" target="Lj6HUYgbdcglg7Dd-NL7-48">
          <mxGeometry relative="1" as="geometry" />
        </mxCell>
        <mxCell id="Lj6HUYgbdcglg7Dd-NL7-60" value="状态" style="ellipse;whiteSpace=wrap;html=1;" vertex="1" parent="1">
          <mxGeometry x="383.5" y="530" width="60" height="50" as="geometry" />
        </mxCell>
        <mxCell id="Lj6HUYgbdcglg7Dd-NL7-67" style="rounded=0;orthogonalLoop=1;jettySize=auto;html=1;exitX=0;exitY=0.5;exitDx=0;exitDy=0;entryX=1;entryY=0.5;entryDx=0;entryDy=0;endArrow=none;endFill=0;" edge="1" parent="1" source="Lj6HUYgbdcglg7Dd-NL7-61" target="Lj6HUYgbdcglg7Dd-NL7-48">
          <mxGeometry relative="1" as="geometry" />
        </mxCell>
        <mxCell id="Lj6HUYgbdcglg7Dd-NL7-61" value="申请时间" style="ellipse;whiteSpace=wrap;html=1;" vertex="1" parent="1">
          <mxGeometry x="400" y="460" width="60" height="50" as="geometry" />
        </mxCell>
        <mxCell id="Lj6HUYgbdcglg7Dd-NL7-82" style="rounded=0;orthogonalLoop=1;jettySize=auto;html=1;exitX=1;exitY=0.5;exitDx=0;exitDy=0;entryX=0.5;entryY=0;entryDx=0;entryDy=0;endArrow=none;endFill=0;" edge="1" parent="1" source="Lj6HUYgbdcglg7Dd-NL7-68" target="Lj6HUYgbdcglg7Dd-NL7-1">
          <mxGeometry relative="1" as="geometry" />
        </mxCell>
        <mxCell id="Lj6HUYgbdcglg7Dd-NL7-84" value="1" style="edgeLabel;html=1;align=center;verticalAlign=middle;resizable=0;points=[];" vertex="1" connectable="0" parent="Lj6HUYgbdcglg7Dd-NL7-82">
          <mxGeometry x="-0.1499" y="1" relative="1" as="geometry">
            <mxPoint as="offset" />
          </mxGeometry>
        </mxCell>
        <mxCell id="Lj6HUYgbdcglg7Dd-NL7-68" value="维护" style="rhombus;whiteSpace=wrap;html=1;rotation=105;" vertex="1" parent="1">
          <mxGeometry x="340" y="140" width="80" height="40" as="geometry" />
        </mxCell>
        <mxCell id="Lj6HUYgbdcglg7Dd-NL7-83" style="rounded=0;orthogonalLoop=1;jettySize=auto;html=1;exitX=0.5;exitY=1;exitDx=0;exitDy=0;entryX=0;entryY=0.5;entryDx=0;entryDy=0;endArrow=none;endFill=0;" edge="1" parent="1" source="Lj6HUYgbdcglg7Dd-NL7-70" target="Lj6HUYgbdcglg7Dd-NL7-68">
          <mxGeometry relative="1" as="geometry" />
        </mxCell>
        <mxCell id="Lj6HUYgbdcglg7Dd-NL7-85" value="N" style="edgeLabel;html=1;align=center;verticalAlign=middle;resizable=0;points=[];" vertex="1" connectable="0" parent="Lj6HUYgbdcglg7Dd-NL7-83">
          <mxGeometry x="-0.1889" y="4" relative="1" as="geometry">
            <mxPoint x="2" y="-1" as="offset" />
          </mxGeometry>
        </mxCell>
        <mxCell id="Lj6HUYgbdcglg7Dd-NL7-70" value="日志" style="rounded=0;whiteSpace=wrap;html=1;" vertex="1" parent="1">
          <mxGeometry x="360" y="50" width="60" height="30" as="geometry" />
        </mxCell>
        <mxCell id="Lj6HUYgbdcglg7Dd-NL7-77" style="rounded=0;orthogonalLoop=1;jettySize=auto;html=1;exitX=1;exitY=1;exitDx=0;exitDy=0;entryX=0.25;entryY=1;entryDx=0;entryDy=0;endArrow=none;endFill=0;" edge="1" parent="1" source="Lj6HUYgbdcglg7Dd-NL7-71" target="Lj6HUYgbdcglg7Dd-NL7-70">
          <mxGeometry relative="1" as="geometry" />
        </mxCell>
        <mxCell id="Lj6HUYgbdcglg7Dd-NL7-71" value="用户ID" style="ellipse;whiteSpace=wrap;html=1;" vertex="1" parent="1">
          <mxGeometry x="270" y="60" width="60" height="50" as="geometry" />
        </mxCell>
        <mxCell id="Lj6HUYgbdcglg7Dd-NL7-78" style="rounded=0;orthogonalLoop=1;jettySize=auto;html=1;exitX=1;exitY=1;exitDx=0;exitDy=0;entryX=0.25;entryY=0;entryDx=0;entryDy=0;endArrow=none;endFill=0;" edge="1" parent="1" source="Lj6HUYgbdcglg7Dd-NL7-72" target="Lj6HUYgbdcglg7Dd-NL7-70">
          <mxGeometry relative="1" as="geometry" />
        </mxCell>
        <mxCell id="Lj6HUYgbdcglg7Dd-NL7-72" value="用户名" style="ellipse;whiteSpace=wrap;html=1;" vertex="1" parent="1">
          <mxGeometry x="300" y="-20" width="60" height="50" as="geometry" />
        </mxCell>
        <mxCell id="Lj6HUYgbdcglg7Dd-NL7-79" style="rounded=0;orthogonalLoop=1;jettySize=auto;html=1;exitX=0.5;exitY=1;exitDx=0;exitDy=0;entryX=0.75;entryY=0;entryDx=0;entryDy=0;endArrow=none;endFill=0;" edge="1" parent="1" source="Lj6HUYgbdcglg7Dd-NL7-73" target="Lj6HUYgbdcglg7Dd-NL7-70">
          <mxGeometry relative="1" as="geometry" />
        </mxCell>
        <mxCell id="Lj6HUYgbdcglg7Dd-NL7-73" value="模块" style="ellipse;whiteSpace=wrap;html=1;" vertex="1" parent="1">
          <mxGeometry x="420" y="-30" width="60" height="50" as="geometry" />
        </mxCell>
        <mxCell id="Lj6HUYgbdcglg7Dd-NL7-80" style="rounded=0;orthogonalLoop=1;jettySize=auto;html=1;exitX=0;exitY=1;exitDx=0;exitDy=0;endArrow=none;endFill=0;" edge="1" parent="1" source="Lj6HUYgbdcglg7Dd-NL7-74" target="Lj6HUYgbdcglg7Dd-NL7-70">
          <mxGeometry relative="1" as="geometry" />
        </mxCell>
        <mxCell id="Lj6HUYgbdcglg7Dd-NL7-74" value="日志类型" style="ellipse;whiteSpace=wrap;html=1;" vertex="1" parent="1">
          <mxGeometry x="450" y="30" width="60" height="50" as="geometry" />
        </mxCell>
        <mxCell id="Lj6HUYgbdcglg7Dd-NL7-81" style="rounded=0;orthogonalLoop=1;jettySize=auto;html=1;exitX=0;exitY=0.5;exitDx=0;exitDy=0;entryX=0.75;entryY=1;entryDx=0;entryDy=0;endArrow=none;endFill=0;" edge="1" parent="1" source="Lj6HUYgbdcglg7Dd-NL7-76" target="Lj6HUYgbdcglg7Dd-NL7-70">
          <mxGeometry relative="1" as="geometry" />
        </mxCell>
        <mxCell id="Lj6HUYgbdcglg7Dd-NL7-76" value="详细内容" style="ellipse;whiteSpace=wrap;html=1;" vertex="1" parent="1">
          <mxGeometry x="443.5" y="90" width="60" height="50" as="geometry" />
        </mxCell>
        <mxCell id="Lj6HUYgbdcglg7Dd-NL7-86" value="受限时间段" style="rounded=0;whiteSpace=wrap;html=1;" vertex="1" parent="1">
          <mxGeometry x="570" y="505" width="70" height="30" as="geometry" />
        </mxCell>
        <mxCell id="Lj6HUYgbdcglg7Dd-NL7-90" style="rounded=0;orthogonalLoop=1;jettySize=auto;html=1;exitX=0.5;exitY=1;exitDx=0;exitDy=0;entryX=0.5;entryY=0;entryDx=0;entryDy=0;endArrow=none;endFill=0;" edge="1" parent="1" source="Lj6HUYgbdcglg7Dd-NL7-87" target="Lj6HUYgbdcglg7Dd-NL7-86">
          <mxGeometry relative="1" as="geometry" />
        </mxCell>
        <mxCell id="Lj6HUYgbdcglg7Dd-NL7-97" value="N" style="edgeLabel;html=1;align=center;verticalAlign=middle;resizable=0;points=[];" vertex="1" connectable="0" parent="Lj6HUYgbdcglg7Dd-NL7-90">
          <mxGeometry x="-0.1879" relative="1" as="geometry">
            <mxPoint x="1" as="offset" />
          </mxGeometry>
        </mxCell>
        <mxCell id="Lj6HUYgbdcglg7Dd-NL7-87" value="管&lt;br&gt;理" style="rhombus;whiteSpace=wrap;html=1;rotation=-30;" vertex="1" parent="1">
          <mxGeometry x="503.5" y="370" width="40" height="80" as="geometry" />
        </mxCell>
        <mxCell id="Lj6HUYgbdcglg7Dd-NL7-99" style="rounded=0;orthogonalLoop=1;jettySize=auto;html=1;exitX=1;exitY=0;exitDx=0;exitDy=0;entryX=0.25;entryY=1;entryDx=0;entryDy=0;endArrow=none;endFill=0;" edge="1" parent="1" source="Lj6HUYgbdcglg7Dd-NL7-91" target="Lj6HUYgbdcglg7Dd-NL7-86">
          <mxGeometry relative="1" as="geometry" />
        </mxCell>
        <mxCell id="Lj6HUYgbdcglg7Dd-NL7-91" value="站点" style="ellipse;whiteSpace=wrap;html=1;" vertex="1" parent="1">
          <mxGeometry x="503.5" y="550" width="60" height="50" as="geometry" />
        </mxCell>
        <mxCell id="Lj6HUYgbdcglg7Dd-NL7-100" style="rounded=0;orthogonalLoop=1;jettySize=auto;html=1;exitX=0.5;exitY=0;exitDx=0;exitDy=0;entryX=0.5;entryY=1;entryDx=0;entryDy=0;endArrow=none;endFill=0;" edge="1" parent="1" source="Lj6HUYgbdcglg7Dd-NL7-92" target="Lj6HUYgbdcglg7Dd-NL7-86">
          <mxGeometry relative="1" as="geometry" />
        </mxCell>
        <mxCell id="Lj6HUYgbdcglg7Dd-NL7-92" value="设备" style="ellipse;whiteSpace=wrap;html=1;" vertex="1" parent="1">
          <mxGeometry x="580" y="560" width="60" height="50" as="geometry" />
        </mxCell>
        <mxCell id="Lj6HUYgbdcglg7Dd-NL7-101" style="rounded=0;orthogonalLoop=1;jettySize=auto;html=1;exitX=0;exitY=0;exitDx=0;exitDy=0;entryX=1;entryY=1;entryDx=0;entryDy=0;endArrow=none;endFill=0;" edge="1" parent="1" source="Lj6HUYgbdcglg7Dd-NL7-93" target="Lj6HUYgbdcglg7Dd-NL7-86">
          <mxGeometry relative="1" as="geometry" />
        </mxCell>
        <mxCell id="Lj6HUYgbdcglg7Dd-NL7-93" value="数据类型" style="ellipse;whiteSpace=wrap;html=1;" vertex="1" parent="1">
          <mxGeometry x="660" y="560" width="60" height="50" as="geometry" />
        </mxCell>
        <mxCell id="Lj6HUYgbdcglg7Dd-NL7-98" style="rounded=0;orthogonalLoop=1;jettySize=auto;html=1;exitX=1;exitY=0.5;exitDx=0;exitDy=0;entryX=0;entryY=0.75;entryDx=0;entryDy=0;endArrow=none;endFill=0;" edge="1" parent="1" source="Lj6HUYgbdcglg7Dd-NL7-94" target="Lj6HUYgbdcglg7Dd-NL7-86">
          <mxGeometry relative="1" as="geometry" />
        </mxCell>
        <mxCell id="Lj6HUYgbdcglg7Dd-NL7-94" value="开始时间" style="ellipse;whiteSpace=wrap;html=1;" vertex="1" parent="1">
          <mxGeometry x="474" y="495" width="60" height="50" as="geometry" />
        </mxCell>
        <mxCell id="Lj6HUYgbdcglg7Dd-NL7-102" style="rounded=0;orthogonalLoop=1;jettySize=auto;html=1;exitX=0;exitY=0.5;exitDx=0;exitDy=0;entryX=1;entryY=0.5;entryDx=0;entryDy=0;endArrow=none;endFill=0;" edge="1" parent="1" source="Lj6HUYgbdcglg7Dd-NL7-95" target="Lj6HUYgbdcglg7Dd-NL7-86">
          <mxGeometry relative="1" as="geometry" />
        </mxCell>
        <mxCell id="Lj6HUYgbdcglg7Dd-NL7-95" value="结束时间" style="ellipse;whiteSpace=wrap;html=1;" vertex="1" parent="1">
          <mxGeometry x="670" y="500" width="60" height="50" as="geometry" />
        </mxCell>
      </root>
    </mxGraphModel>
  </diagram>
</mxfile>
